<?xml version="1.0" encoding="utf-8"?>
<!-- Generator: Adobe Illustrator 27.4.1, SVG Export Plug-In . SVG Version: 6.00 Build 0)  -->
<svg version="1.1" id="Layer_1" xmlns="http://www.w3.org/2000/svg" xmlns:xlink="http://www.w3.org/1999/xlink" x="0px" y="0px"
	 viewBox="0 0 350 59.1" style="enable-background:new 0 0 350 59.1;" xml:space="preserve">
<style type="text/css">
	.st0{fill:#FFFFFF;}
</style>
<g>
	<g>
		<g>
			<path class="st0" d="M32.3,3.3C17.9,3.3,6.3,14.9,6.3,29.1c0,13.3,9.8,24.2,22.9,25.8v-3.7c-4.3-0.7-8.5-2.1-11.4-5.9h14.6H47
				c-2.7,3.9-7.1,5.3-11.4,5.9v3.7c12.8-1.6,22.9-12.6,22.9-25.8C58.4,14.9,46.7,3.3,32.3,3.3z M17.9,22c1.1-1.1,9.8-9.6,11.2-11.2
				c3.7-3.7,3-6.6,3-6.6c4.1,3.2,2.7,6.6,0.5,8.7c-1.8,1.8-8.2,8.2-11.4,11.2c-4.8,4.6-4.1,8.5-3.2,11.7
				C14.5,32.3,12.9,27.3,17.9,22z M24.1,23.8c1.4-1.1,8-8,10.5-10.3c4.8-4.8,4.6-6.6,4.8-7.5c3.4,3.4,1.4,7.1-0.5,8.9
				c-1.6,1.6-9.1,9.4-12.3,12.1c-0.7,0.7-5.9,5.5-5.5,9.8C18.2,33.2,18.8,28.6,24.1,23.8z M27.1,29.3c1.4-1.1,9.4-9.1,10.7-10.7
				c5-4.8,4.8-6.2,4.8-6.2c2.1,5-0.7,8-2.5,9.6c-1.8,1.8-6.9,6.6-9.6,9.6c-7.1,6.9-4.6,12.6-4.6,12.6C21.4,40.8,22.5,33.9,27.1,29.3
				z M46,33c-1.8,1.6-1.1,0.9-3.9,3.7c-4.6,4.6-4.6,7.5-4.6,7.5c-2.5-2.7-0.9-7.5,1.8-10.1c1.1-1.1,3.2-3.2,4.8-4.6
				c3-3,4.1-3.9,4.6-4.8C49.7,29.3,47.2,31.6,46,33z M46,24.5c-1.8,1.8-5.3,5-8,8c-6.6,6.2-6.6,10.1-6.4,11.9
				c-4.8-5.7-0.9-10.1,1.4-12.3c1.1-1.1,8.2-8,9.8-9.6c5.7-5.5,5.7-7.1,5.7-7.1C50.8,20.2,47.9,22.7,46,24.5z"/>
		</g>
		<g>
			<path class="st0" d="M89.9,24.3c-1.6,2.3-3.7,2.7-4.8,2.7c-3.4,0-5.5-2.7-5.5-5.7c0-2.1,0.7-3.7,1.8-4.8c1.4-1.1,3-1.8,4.3-1.8
				l0,0c2.5,0,4.3,2.1,4.3,4.3c0,0.5-0.2,0.9-0.7,0.9c-0.5,0-3.9,0.2-6.6,0.5c0,3.2,1.8,4.8,3.9,4.8C87.9,25.2,88.8,24.8,89.9,24.3
				L89.9,24.3z M82.9,19c1.1,0,2.5,0,3.7,0c0.5,0,0.7,0,0.7-0.5c0-1.4-0.7-2.7-1.8-2.7C84,15.6,83.1,17,82.9,19z"/>
			<path class="st0" d="M101.8,24.3c-1.1,1.6-3,3-4.6,3c-3.7,0-5.7-2.7-5.7-5.7c0-2.1,0.9-3.9,2.7-5.3c1.6-1.1,3.4-1.6,4.3-1.6l0,0
				c0.9,0,1.8,0.2,2.3,0.7c0.5,0.2,0.5,0.5,0.5,0.9c0,0.7-0.7,1.4-1.1,1.4c-0.2,0-0.2,0-0.5-0.2c-0.9-0.9-1.8-1.4-2.7-1.4
				c-1.4,0-2.7,1.1-2.7,4.1c0,3.7,2.5,4.8,3.9,4.8c1.1,0,2.1-0.2,3-1.1L101.8,24.3z"/>
			<path class="st0" d="M110.3,26.8v-0.7c1.4-0.2,1.4-0.2,1.4-2.3v-4.6c0-1.8-0.9-2.7-2.1-2.7c-0.9,0-1.6,0.5-2.3,1.1v6.4
				c0,1.8,0.2,1.8,1.4,2.1V27h-6.4v-0.9c1.8-0.2,1.8-0.2,1.8-2.1v-5.7c0-1.6-0.2-1.8-1.6-2.1v-0.7c1.4-0.2,3-0.5,4.6-1.1v2.1
				c0.5-0.5,1.1-0.9,1.8-1.1c0.7-0.5,1.4-0.7,2.3-0.7c2.3,0,3.4,1.6,3.4,4.3v5.3c0,1.8,0.2,1.8,1.6,2.1v0.9h-5.9
				C110.3,27.3,110.3,26.8,110.3,26.8z"/>
			<path class="st0" d="M130,20.6c0,4.3-3.2,6.6-6.2,6.6c-4.1,0-6.2-3-6.2-5.9c0-4.3,3.4-6.6,6.4-6.6C127.4,14.7,130,17.4,130,20.6z
				 M121,20.2c0,3.4,1.1,5.9,3.2,5.9c1.4,0,2.5-0.9,2.5-4.8c0-3.4-1.1-5.7-3-5.7C122.2,15.6,121,17.2,121,20.2z"/>
			<path class="st0" d="M130.6,26.8v-0.7c1.6-0.2,1.8-0.5,1.8-2.1V11.5c0-1.8-0.2-1.8-1.8-2.1V8.8c1.6-0.2,3.4-0.5,4.8-0.9v16.2
				c0,1.8,0.2,2.1,1.8,2.1V27L130.6,26.8L130.6,26.8z"/>
			<path class="st0" d="M150.8,20.6c0,4.3-3.2,6.6-6.2,6.6c-4.1,0-6.2-3-6.2-5.9c0-4.6,3.4-6.6,6.4-6.6
				C148.2,14.7,150.8,17.4,150.8,20.6z M141.8,20.2c0,3.4,1.1,5.9,3.2,5.9c1.4,0,2.5-0.9,2.5-4.8c0-3.4-1.1-5.7-3-5.7
				C143,15.6,141.8,17.2,141.8,20.2z M143.7,13.3c0.5-1.1,1.4-3.9,1.6-4.3c0.2-0.2,2.3-0.5,2.7-0.2l0.2,0.2l-3.4,4.8L143.7,13.3z"/>
			<path class="st0" d="M164.7,15.2c-0.2,0.5-0.7,1.4-1.1,1.6H162c0.5,0.5,0.7,1.4,0.7,2.3c0,3-2.5,4.3-5,4.3c-0.5,0-0.9,0-1.4-0.2
				c-0.2,0.2-0.5,0.5-0.5,0.9s0.5,1.1,1.8,0.9c0.9,0,1.8,0,2.7,0c1.6,0,4.1,0.5,4.1,3.2c0,3-3.4,5.5-7.1,5.5c-3.4,0-5-1.8-5-3.2
				c0-0.7,0.2-1.1,0.7-1.6c0.7-0.5,1.4-1.1,2.1-1.6c-1.1-0.5-1.6-0.9-2.1-1.6c-0.2-0.5-0.5-0.9-0.5-1.4c1.4-0.5,2.3-1.1,2.7-1.8
				c-1.6-0.5-2.5-1.8-2.5-3.7c0-3,2.7-4.6,5-4.6l0,0c1.1,0,1.8,0.2,2.7,0.7C162,15.4,163.3,15.2,164.7,15.2L164.7,15.2z M155.6,28
				c-0.5,0.5-0.9,0.9-0.9,1.6c0,1.4,1.4,2.5,3.4,2.5c2.3,0,3.4-1.1,3.4-2.7c0-0.9-0.7-1.6-1.4-1.8c-0.7-0.2-1.4-0.2-2.5-0.2
				C156.7,27.3,156,27.5,155.6,28z M155.8,18.6c0,2.1,0.7,3.4,2.1,3.4c1.1,0,1.8-1.1,1.8-3.2c0-1.8-0.7-3.4-2.1-3.4
				C156.7,15.6,155.8,16.8,155.8,18.6z"/>
			<path class="st0" d="M165.2,26.8v-0.7c1.6-0.2,1.8-0.2,1.8-2.3v-5.5c0-1.8-0.2-1.8-1.6-2.1v-0.7c1.6-0.2,3.2-0.5,4.6-0.9v9.1
				c0,1.8,0.2,2.1,1.8,2.3V27L165.2,26.8L165.2,26.8z M166.5,11c0-0.9,0.7-1.8,1.8-1.8c0.9,0,1.6,0.7,1.6,1.8c0,0.9-0.7,1.6-1.8,1.6
				C167.5,12.6,166.5,12,166.5,11z"/>
			<path class="st0" d="M183.2,24.3c-1.1,1.6-3,3-4.6,3c-3.7,0-5.9-2.7-5.9-5.7c0-2.1,0.9-3.9,2.7-5.3c1.6-1.1,3.4-1.6,4.6-1.6l0,0
				c0.9,0,1.8,0.2,2.3,0.7c0.5,0.2,0.5,0.5,0.5,0.9c0,0.7-0.7,1.4-1.1,1.4c-0.2,0-0.2,0-0.5-0.2c-0.9-0.9-1.8-1.4-2.7-1.4
				c-1.4,0-2.7,1.1-2.7,4.1c0,3.7,2.5,4.8,3.9,4.8c1.1,0,2.1-0.2,3-1.1L183.2,24.3z"/>
			<path class="st0" d="M196.3,20.6c0,4.3-3.2,6.6-6.2,6.6c-4.1,0-6.2-3-6.2-5.9c0-4.3,3.4-6.6,6.4-6.6
				C194,14.7,196.3,17.4,196.3,20.6z M187.3,20.2c0,3.4,1.1,5.9,3.2,5.9c1.4,0,2.5-0.9,2.5-4.8c0-3.4-1.1-5.7-3-5.7
				C188.5,15.6,187.3,17.2,187.3,20.2z"/>
			<path class="st0" d="M80.3,50.6c-0.7,0-3,0.5-5,1.1v-1.6l-1.6,1.1c-0.9,0.5-1.4,0.7-1.6,0.7c-2.3,0-5.5-1.8-5.5-5.9
				c0-3.7,3.2-6.6,7.3-6.6c0.2,0,0.7,0,1.4,0.2v-3.4c0-1.6-0.2-1.6-1.8-1.8v-0.7c1.6-0.2,3.7-0.5,5-0.9v15.8c0,1.6,0.2,1.6,1.1,1.8
				h0.7C80.3,50.4,80.3,50.6,80.3,50.6z M75.3,41.5c-0.5-0.9-1.4-1.4-2.3-1.4c-0.9,0-3,0.9-3,4.8c0,3.2,2.1,4.6,3.4,4.6
				c0.7,0,1.4-0.2,1.8-0.7V41.5z"/>
			<path class="st0" d="M91.8,48.8c-1.6,2.3-3.7,2.7-4.8,2.7c-3.4,0-5.5-2.7-5.5-5.7c0-2.1,0.7-3.7,1.8-4.8c1.1-1.1,2.7-2.1,4.1-2.1
				l0,0c2.5,0,4.3,2.1,4.3,4.3c0,0.5-0.2,0.9-0.7,0.9c-0.5,0-3.9,0.2-6.6,0.5c0,3.2,1.8,4.8,3.9,4.8c1.1,0,2.1-0.5,3-1.1L91.8,48.8z
				 M84.5,43.5c1.1,0,2.5,0,3.7,0c0.5,0,0.7,0,0.7-0.5c0-1.4-0.7-2.7-1.8-2.7C85.8,40.1,84.7,41.5,84.5,43.5z"/>
			<path class="st0" d="M114,51.3v-0.9c2.1-0.2,2.3-0.5,2.3-3V36.6H116l-6.2,14.4h-0.7l-5.7-14.2l0,0l-0.5,7.5c0,2.3,0,3.4,0,4.3
				c0,1.1,0.7,1.4,2.5,1.6v0.9h-6.4v-0.9c1.6-0.2,2.1-0.5,2.3-1.6c0.2-0.9,0.5-2.3,0.5-5l0.5-5.5c0.2-3.2,0-3.7-2.3-3.9v-0.9h5.3
				l5.5,12.6l5.7-12.6h5.3v0.9c-2.3,0.2-2.3,0.5-2.3,2.7l0.2,10.1c0,2.7,0.2,2.7,2.3,3v1.1H114z"/>
			<path class="st0" d="M135,45.1c0,4.3-3.2,6.6-6.2,6.6c-4.1,0-6.2-3-6.2-5.9c0-4.3,3.4-6.6,6.4-6.6C132.7,39.2,135,41.9,135,45.1z
				 M126.1,44.7c0,3.4,1.1,5.9,3.2,5.9c1.4,0,2.5-0.9,2.5-4.8c0-3.4-1.1-5.7-3-5.7C127.2,40.1,126.1,41.7,126.1,44.7z"/>
			<path class="st0" d="M143.7,51.3v-0.9c1.4-0.2,1.4-0.2,1.4-2.3v-4.6c0-1.8-0.9-2.7-2.1-2.7c-0.9,0-1.6,0.5-2.3,1.1v6.4
				c0,1.8,0.2,1.8,1.4,2.1v0.9h-6.4v-0.9c1.8-0.2,1.8-0.2,1.8-2.1v-5.7c0-1.6-0.2-1.8-1.6-2.1v-0.7c1.4-0.2,3-0.5,4.6-1.1v2.1
				c0.5-0.5,1.1-0.9,1.8-1.1c0.7-0.5,1.4-0.7,2.3-0.7c2.3,0,3.4,1.6,3.4,4.3v5.3c0,1.8,0.2,1.8,1.6,2.1v0.7H143.7z"/>
			<path class="st0" d="M156,51.3c-0.5,0.2-0.9,0.2-1.1,0.2c-2.1,0-3.2-0.9-3.2-3.4v-7.8h-1.8l0,0l0.7-0.9h1.1v-2.1l2.5-2.1l0.5,0.2
				v3.9h2.7c0.2,0.2,0.2,0.9-0.2,1.1h-2.7v6.9c0,2.1,0.9,2.5,1.6,2.5c0.5,0,1.1-0.2,1.6-0.5l0.2,0.9L156,51.3z"/>
			<path class="st0" d="M168.8,48.8c-1.6,2.3-3.7,2.7-4.8,2.7c-3.4,0-5.5-2.7-5.5-5.7c0-2.1,0.7-3.7,1.8-4.8
				c1.1-1.1,2.7-2.1,4.1-2.1l0,0c2.5,0,4.3,2.1,4.3,4.3c0,0.5-0.2,0.9-0.7,0.9c-0.5,0-3.9,0.2-6.6,0.5c0,3.2,1.8,4.8,3.9,4.8
				c1.1,0,2.1-0.5,3-1.1L168.8,48.8z M161.7,43.5c1.1,0,2.5,0,3.7,0c0.5,0,0.7,0,0.7-0.5c0-1.4-0.7-2.7-1.8-2.7
				C162.9,40.1,162,41.5,161.7,43.5z"/>
			<path class="st0" d="M174.5,41.9c0.9-1.6,2.1-3,3.2-3c1.1,0,1.8,0.7,1.8,1.6c0,0.9-0.5,1.6-1.1,1.8c-0.5,0.2-0.7,0-0.7,0
				c-0.5-0.5-0.7-0.5-1.1-0.5c-0.7,0-1.1,0.5-1.8,1.8v5c0,1.6,0.2,1.8,2.3,2.1v0.5H170v-0.9c1.6-0.2,1.8-0.2,1.8-2.1v-5.7
				c0-1.6-0.2-1.6-1.6-1.8v-0.7c1.6-0.2,3-0.5,4.6-1.1L174.5,41.9L174.5,41.9z"/>
			<path class="st0" d="M185.3,41.9c0.9-1.6,2.1-3,3.2-3c1.1,0,1.8,0.7,1.8,1.6c0,0.9-0.5,1.6-1.1,1.8c-0.5,0.2-0.7,0-0.7,0
				c-0.5-0.5-0.7-0.5-1.1-0.5c-0.7,0-1.1,0.5-1.8,1.8v5c0,1.6,0.2,1.8,2.3,2.1v0.5h-7.1v-0.9c1.6-0.2,1.8-0.2,1.8-2.1v-5.7
				c0-1.6-0.2-1.6-1.6-1.8v-0.7c1.6-0.2,3-0.5,4.6-1.1L185.3,41.9L185.3,41.9z"/>
			<path class="st0" d="M200.8,48.8c-1.6,2.3-3.7,2.7-4.8,2.7c-3.4,0-5.5-2.7-5.5-5.7c0-2.1,0.7-3.7,1.8-4.8
				c1.1-1.1,2.7-2.1,4.1-2.1l0,0c2.5,0,4.3,2.1,4.3,4.3c0,0.5-0.2,0.9-0.7,0.9c-0.5,0-3.9,0.2-6.6,0.5c0,3.2,1.8,4.8,3.9,4.8
				c1.1,0,2.1-0.5,3-1.1L200.8,48.8z M193.5,43.5c1.1,0,2.5,0,3.7,0c0.5,0,0.7,0,0.7-0.5c0-1.4-0.7-2.7-1.8-2.7
				C194.9,40.1,193.7,41.5,193.5,43.5z"/>
			<path class="st0" d="M214.3,40.1c-1.4,0.2-1.6,0.5-2.3,2.1c-0.7,1.4-1.6,3.7-3.2,7.8c-1.8,4.3-2.3,5.9-2.7,7.5
				c-0.2,0.5-0.5,0.7-0.9,0.7c-0.7,0-1.8-0.7-1.8-1.6c0-0.5,0.2-0.7,0.7-1.1c0.9-0.5,1.6-1.1,2.1-2.1c0.5-0.7,0.5-1.1,0.7-1.4
				c0.2-0.5,0-0.9,0-1.4c-1.4-3.7-2.7-7.3-3.4-8.7c-0.5-1.4-0.9-1.6-2.3-1.8v-0.7h6.2v0.7c-1.1,0.2-1.4,0.5-1.1,1.4l2.3,6.4
				c0.7-1.6,1.6-4.6,2.3-6.2c0.2-0.9,0-1.4-1.4-1.6v-0.7h4.8L214.3,40.1L214.3,40.1z"/>
		</g>
		<path class="st0" d="M66.4,9c0,1.6-0.2,3-0.2,4.6h0.9c0.2-1.4,0.7-2.3,0.9-2.7c0.5-0.5,0.9-0.7,3.2-0.7h1.1v13.3
			c0,2.3-0.2,2.5-2.5,2.7V27h8.5v-0.9c-2.5-0.2-2.7-0.5-2.7-2.7V10.1h1.4c1.8,0,2.3,0.2,2.7,0.7c0.5,0.5,0.7,1.4,1.1,2.7h0.9
			c0-1.4-0.2-3-0.2-4.6H66.4z"/>
	</g>
	<rect x="232.6" y="1" class="st0" width="1.4" height="55.3"/>
	<g>
		<path class="st0" d="M277.6,22.3c0-0.2,0-0.5,0-0.7c0-6.6-5.5-12.1-12.1-12.1c-6.6,0-12.1,5.5-12.1,12.1c0,5.2,3.3,9.6,7.9,11.3
			c-0.7,1.8-1.1,3.8-1.1,5.8c0,9.1,7.3,16.5,16.5,16.5s16.5-7.3,16.5-16.5C293.2,29.9,286.4,22.7,277.6,22.3z M265.5,19
			c1.4,0,2.5,1.1,2.5,2.5s-1.1,2.5-2.5,2.5s-2.5-1.1-2.5-2.5S264.2,19,265.5,19z M276.7,44c-3,0-5.3-2.3-5.3-5.3s2.3-5.3,5.3-5.3
			c3,0,5.3,2.3,5.3,5.3S279.7,44,276.7,44z"/>
		<g>
			<g>
				<path class="st0" d="M301.9,3.3c-10.5,0-19.2,7.8-20.8,17.6c8,1.8,13.9,8.9,13.9,17.6c0,1.8-0.2,3.7-0.9,5.5
					c2.3,0.9,4.8,1.4,7.5,1.4c11.7,0,21-9.4,21-21S313.6,3.3,301.9,3.3z M301.9,33.2c-4.8,0-8.9-3.9-8.9-8.9c0-4.8,3.9-8.9,8.9-8.9
					c4.8,0,8.9,3.9,8.9,8.9S306.9,33.2,301.9,33.2z"/>
			</g>
		</g>
		<g>
			<path class="st0" d="M320,36.6h1.8l2.5,6.9h-1.8l-0.5-1.4h-2.3l-0.5,1.4h-1.8L320,36.6z M321.3,40.8l-0.7-2.3l-0.7,2.3H321.3z"/>
			<path class="st0" d="M324.3,36.6h1.8l2.5,4.3v-4.3h1.8v6.9h-1.8l-2.5-4.3v4.3h-1.8V36.6z M326.4,36l-0.9-0.2
				c0.2-0.5,0.2-0.9,0.5-0.9c0.2-0.2,0.5-0.2,0.7-0.2c0.2,0,0.5,0,0.9,0.2c0.5,0,0.7,0.2,0.7,0.2c0.2,0,0.2-0.2,0.5-0.5l0.9,0.2
				c0,0.5-0.2,0.7-0.5,0.9s-0.5,0.2-0.9,0.2c-0.2,0-0.5,0-0.9-0.2l-0.5-0.2h-0.2C326.6,35.5,326.4,35.7,326.4,36z"/>
			<path class="st0" d="M334.6,36.4c0.9,0,1.6,0.2,2.1,0.7c0.5,0.2,0.7,0.7,0.9,1.1c0.2,0.5,0.2,1.1,0.2,1.6c0,1.4-0.5,2.3-1.4,3
				c-0.7,0.5-1.4,0.7-2.1,0.7c-0.9,0-1.6-0.2-2.1-0.7c-0.9-0.7-1.4-1.6-1.4-3c0-0.7,0.2-1.1,0.5-1.6c0.2-0.5,0.5-0.9,0.9-1.1
				C333,36.6,333.7,36.4,334.6,36.4z M334.6,37.8c-0.5,0-0.9,0.2-1.1,0.7c-0.2,0.5-0.5,0.9-0.5,1.6c0,0.7,0.2,1.1,0.5,1.6
				c0.2,0.5,0.7,0.7,1.1,0.7s0.9-0.2,1.1-0.7c0.2-0.5,0.5-0.9,0.5-1.6c0-0.7-0.2-1.1-0.5-1.6C335.5,38,335,37.8,334.6,37.8z"/>
			<path class="st0" d="M343.7,38.7h-1.8c0-0.2,0-0.5-0.2-0.7c-0.2-0.2-0.5-0.2-0.7-0.2c-0.5,0-0.9,0.2-0.9,0.5c0,0.2,0,0.2,0.2,0.2
				c0,0,0.2,0.2,0.5,0.2c0.9,0.5,1.6,0.7,1.8,0.9c0.7,0.5,0.9,0.9,0.9,1.6c0,0.7-0.2,1.1-0.7,1.6s-1.1,0.7-2.1,0.7
				c-0.9,0-1.6-0.2-2.1-0.7c-0.5-0.5-0.7-0.9-0.7-1.8v-0.2h1.6c0,0.5,0.2,0.7,0.2,0.9c0.2,0.2,0.5,0.2,0.9,0.2c0.2,0,0.5,0,0.7-0.2
				c0.2,0,0.2-0.2,0.2-0.5s0-0.2-0.2-0.5c0,0-0.2-0.2-0.7-0.2l-0.7-0.2c-0.7-0.2-1.4-0.7-1.6-0.9c-0.2-0.2-0.5-0.7-0.5-1.1
				c0-0.7,0.2-1.1,0.7-1.6c0.5-0.5,1.1-0.5,2.1-0.5c0.9,0,1.6,0.2,2.1,0.7c0.2,0.2,0.2,0.5,0.5,0.7C343.7,38,343.7,38.2,343.7,38.7z
				"/>
		</g>
	</g>
</g>
</svg>
